 <svg width="1821" height="1201" viewBox="0 0 1821 1201" fill="none" xmlns="http://www.w3.org/2000/svg">
            <path opacity="0.2"
                  d="M483.6 688.192V687.192H482.6V688.192H483.6ZM483.6 760H482.6V761H483.6V760ZM500.88 760V761H501.88V760H500.88ZM500.88 735.808V734.808H499.88V735.808H500.88ZM500.88 721.696H499.88V722.696H500.88V721.696ZM500.88 702.496V701.496H499.88V702.496H500.88ZM516.048 687.192H483.6V689.192H516.048V687.192ZM482.6 688.192V760H484.6V688.192H482.6ZM483.6 761H500.88V759H483.6V761ZM501.88 760V735.808H499.88V760H501.88ZM500.88 736.808H516.144V734.808H500.88V736.808ZM516.144 736.808C524.858 736.808 532.376 734.937 537.738 730.856C543.142 726.742 546.232 720.478 546.232 712H544.232C544.232 719.938 541.37 725.578 536.526 729.264C531.64 732.983 524.614 734.808 516.144 734.808V736.808ZM546.232 712C546.232 703.566 543.115 697.303 537.689 693.18C532.305 689.088 524.765 687.192 516.048 687.192V689.192C524.515 689.192 531.567 691.04 536.479 694.772C541.349 698.473 544.232 704.114 544.232 712H546.232ZM516.048 720.696H500.88V722.696H516.048V720.696ZM501.88 721.696V702.496H499.88V721.696H501.88ZM500.88 703.496H515.856V701.496H500.88V703.496ZM515.856 703.496C519.195 703.496 521.906 704.195 523.756 705.567C525.56 706.905 526.664 708.966 526.664 712H528.664C528.664 708.41 527.32 705.719 524.948 703.961C522.622 702.237 519.429 701.496 515.856 701.496V703.496ZM526.664 712C526.664 715.096 525.573 717.208 523.801 718.576C521.987 719.976 519.331 720.696 516.048 720.696V722.696C519.581 722.696 522.733 721.928 525.023 720.16C527.355 718.36 528.664 715.624 528.664 712H526.664ZM610.285 685.464C597.468 685.464 586.703 689.242 579.128 696.002C571.542 702.771 567.237 712.459 567.237 724.096H569.237C569.237 712.981 573.333 703.853 580.459 697.494C587.596 691.126 597.855 687.464 610.285 687.464V685.464ZM567.237 724.096C567.237 735.686 571.542 745.373 579.127 752.154C586.701 758.925 597.467 762.728 610.285 762.728V760.728C597.856 760.728 587.598 757.043 580.46 750.662C573.333 744.291 569.237 735.162 569.237 724.096H567.237ZM610.285 762.728C623.199 762.728 633.989 758.926 641.564 752.154C649.15 745.372 653.43 735.684 653.43 724.096H651.43C651.43 735.164 647.357 744.292 640.231 750.662C633.094 757.042 622.812 760.728 610.285 760.728V762.728ZM653.43 724.096C653.43 712.461 649.15 702.772 641.563 696.002C633.987 689.242 623.197 685.464 610.285 685.464V687.464C622.814 687.464 633.096 691.126 640.232 697.494C647.357 703.852 651.43 712.979 651.43 724.096H653.43ZM610.285 745.368C603.526 745.368 597.704 743.295 593.586 739.633C589.48 735.981 586.998 730.691 586.998 724.096H584.998C584.998 731.229 587.699 737.075 592.257 741.127C596.803 745.169 603.125 747.368 610.285 747.368V745.368ZM586.998 724.096C586.998 717.501 589.48 712.211 593.586 708.559C597.704 704.897 603.526 702.824 610.285 702.824V700.824C603.125 700.824 596.803 703.023 592.257 707.065C587.699 711.117 584.998 716.963 584.998 724.096H586.998ZM610.285 702.824C617.143 702.824 622.988 704.899 627.105 708.559C631.209 712.209 633.67 717.498 633.67 724.096H635.67C635.67 716.966 632.994 711.119 628.434 707.065C623.887 703.021 617.54 700.824 610.285 700.824V702.824ZM633.67 724.096C633.67 730.694 631.209 735.983 627.105 739.633C622.988 743.293 617.143 745.368 610.285 745.368V747.368C617.54 747.368 623.887 745.171 628.434 741.127C632.994 737.073 635.67 731.226 635.67 724.096H633.67ZM678.862 688.192V687.192H677.862V688.192H678.862ZM678.862 760H677.862V761H678.862V760ZM696.142 760V761H697.142V760H696.142ZM696.142 735.808V734.808H695.142V735.808H696.142ZM696.142 721.696H695.142V722.696H696.142V721.696ZM696.142 702.496V701.496H695.142V702.496H696.142ZM711.31 687.192H678.862V689.192H711.31V687.192ZM677.862 688.192V760H679.862V688.192H677.862ZM678.862 761H696.142V759H678.862V761ZM697.142 760V735.808H695.142V760H697.142ZM696.142 736.808H711.406V734.808H696.142V736.808ZM711.406 736.808C720.121 736.808 727.638 734.937 733 730.856C738.405 726.742 741.495 720.478 741.495 712H739.495C739.495 719.938 736.632 725.578 731.789 729.264C726.903 732.983 719.876 734.808 711.406 734.808V736.808ZM741.495 712C741.495 703.566 738.378 697.303 732.952 693.18C727.567 689.088 720.028 687.192 711.31 687.192V689.192C719.777 689.192 726.83 691.04 731.741 694.772C736.611 698.473 739.495 704.114 739.495 712H741.495ZM711.31 720.696H696.142V722.696H711.31V720.696ZM697.142 721.696V702.496H695.142V721.696H697.142ZM696.142 703.496H711.118V701.496H696.142V703.496ZM711.118 703.496C714.458 703.496 717.168 704.195 719.019 705.567C720.823 706.905 721.926 708.966 721.926 712H723.926C723.926 708.41 722.582 705.719 720.21 703.961C717.885 702.237 714.691 701.496 711.118 701.496V703.496ZM721.926 712C721.926 715.096 720.836 717.208 719.063 718.576C717.25 719.976 714.593 720.696 711.31 720.696V722.696C714.844 722.696 717.995 721.928 720.286 720.16C722.617 718.36 723.926 715.624 723.926 712H721.926ZM783.18 745.12H782.18V746.12H783.18V745.12ZM783.18 688.192H784.18V687.192H783.18V688.192ZM765.9 688.192V687.192H764.9V688.192H765.9ZM765.9 760H764.9V761H765.9V760ZM821.964 760V761H822.964V760H821.964ZM821.964 745.12H822.964V744.12H821.964V745.12ZM784.18 745.12V688.192H782.18V745.12H784.18ZM783.18 687.192H765.9V689.192H783.18V687.192ZM764.9 688.192V760H766.9V688.192H764.9ZM765.9 761H821.964V759H765.9V761ZM822.964 760V745.12H820.964V760H822.964ZM821.964 744.12H783.18V746.12H821.964V744.12ZM908.735 760L907.82 760.402L908.082 761H908.735V760ZM927.071 760V761H928.611L927.985 759.593L927.071 760ZM895.103 688.192L896.017 687.785L895.753 687.192H895.103V688.192ZM869.471 688.192V687.192H868.822L868.558 687.785L869.471 688.192ZM837.503 760L836.59 759.593L835.963 761H837.503V760ZM855.647 760V761H856.304L856.565 760.397L855.647 760ZM861.791 745.792V744.792H861.134L860.873 745.395L861.791 745.792ZM902.495 745.792L903.411 745.39L903.148 744.792H902.495V745.792ZM882.143 697.792L883.063 697.399L882.143 695.245L881.224 697.399L882.143 697.792ZM896.735 731.968V732.968H898.25L897.655 731.575L896.735 731.968ZM867.551 731.968L866.632 731.575L866.037 732.968H867.551V731.968ZM908.735 761H927.071V759H908.735V761ZM927.985 759.593L896.017 687.785L894.19 688.599L926.158 760.407L927.985 759.593ZM895.103 687.192H869.471V689.192H895.103V687.192ZM868.558 687.785L836.59 759.593L838.417 760.407L870.385 688.599L868.558 687.785ZM837.503 761H855.647V759H837.503V761ZM856.565 760.397L862.709 746.189L860.873 745.395L854.729 759.603L856.565 760.397ZM861.791 746.792H902.495V744.792H861.791V746.792ZM901.58 746.194L907.82 760.402L909.651 759.598L903.411 745.39L901.58 746.194ZM881.224 698.185L895.816 732.361L897.655 731.575L883.063 697.399L881.224 698.185ZM896.735 730.968H867.551V732.968H896.735V730.968ZM868.471 732.361L883.063 698.185L881.224 697.399L866.632 731.575L868.471 732.361ZM1003.49 688.192V687.192H1002.81L1002.56 687.818L1003.49 688.192ZM978.431 750.4L977.502 750.772L978.429 753.081L979.358 750.774L978.431 750.4ZM953.471 688.192L954.399 687.82L954.147 687.192H953.471V688.192ZM935.423 688.192V687.192H933.935L934.497 688.57L935.423 688.192ZM964.703 760L963.777 760.378L964.03 761H964.703V760ZM992.062 760V761H992.734L992.988 760.379L992.062 760ZM1021.44 688.192L1022.36 688.571L1022.93 687.192H1021.44V688.192ZM1002.56 687.818L977.503 750.026L979.358 750.774L1004.41 688.566L1002.56 687.818ZM979.359 750.028L954.399 687.82L952.542 688.564L977.502 750.772L979.359 750.028ZM953.471 687.192H935.423V689.192H953.471V687.192ZM934.497 688.57L963.777 760.378L965.628 759.622L936.348 687.814L934.497 688.57ZM964.703 761H992.062V759H964.703V761ZM992.988 760.379L1022.36 688.571L1020.51 687.813L991.137 759.621L992.988 760.379ZM1021.44 687.192H1003.49V689.192H1021.44V687.192ZM1073.76 715.648L1074.07 714.695L1074.07 714.695L1073.76 715.648ZM1097.96 708.16L1097.35 708.957L1098.96 710.174V708.16H1097.96ZM1097.96 692.032H1098.96V691.46L1098.46 691.17L1097.96 692.032ZM1065.8 729.28L1065.48 730.23L1065.49 730.232L1065.8 729.28ZM1040.64 739.744L1041.21 738.917L1039.64 737.856V739.744H1040.64ZM1040.64 755.776H1039.64V756.351L1040.14 756.64L1040.64 755.776ZM1074.07 714.695C1069.29 713.183 1065.54 712.162 1062.94 710.918C1061.65 710.303 1060.75 709.678 1060.16 708.992C1059.6 708.335 1059.31 707.586 1059.31 706.624H1057.31C1057.31 708.061 1057.77 709.269 1058.64 710.289C1059.48 711.28 1060.67 712.053 1062.08 712.722C1064.85 714.046 1068.83 715.137 1073.46 716.601L1074.07 714.695ZM1059.31 706.624C1059.31 705.772 1059.58 705.128 1060.09 704.599C1060.63 704.043 1061.46 703.565 1062.66 703.185C1065.05 702.42 1068.54 702.152 1072.8 702.152V700.152C1068.52 700.152 1064.76 700.412 1062.05 701.279C1060.68 701.715 1059.5 702.329 1058.65 703.213C1057.78 704.124 1057.31 705.268 1057.31 706.624H1059.31ZM1072.8 702.152C1083.5 702.152 1092 704.899 1097.35 708.957L1098.56 707.363C1092.77 702.973 1083.81 700.152 1072.8 700.152V702.152ZM1098.96 708.16V692.032H1096.96V708.16H1098.96ZM1098.46 691.17C1092.21 687.495 1082.6 685.464 1072.61 685.464V687.464C1082.4 687.464 1091.61 689.465 1097.45 692.894L1098.46 691.17ZM1072.61 685.464C1064.66 685.464 1056.58 686.72 1050.45 689.947C1044.26 693.203 1040.03 698.5 1040.03 706.432H1042.03C1042.03 699.388 1045.71 694.701 1051.38 691.717C1057.11 688.704 1064.82 687.464 1072.61 687.464V685.464ZM1040.03 706.432C1040.03 714.125 1043.25 719.094 1048.11 722.625C1052.88 726.095 1059.24 728.179 1065.48 730.23L1066.11 728.33C1059.78 726.253 1053.75 724.257 1049.28 721.007C1044.9 717.818 1042.03 713.427 1042.03 706.432H1040.03ZM1065.49 730.232C1070.13 731.731 1074.42 733.095 1077.57 734.749C1080.76 736.425 1082.36 738.188 1082.36 740.32H1084.36C1084.36 736.98 1081.79 734.711 1078.5 732.979C1075.17 731.225 1070.68 729.805 1066.1 728.328L1065.49 730.232ZM1082.36 740.32C1082.36 741.469 1082.15 742.324 1081.73 742.987C1081.32 743.644 1080.66 744.208 1079.59 744.67C1077.39 745.623 1073.72 746.04 1067.91 746.04V748.04C1073.71 748.04 1077.76 747.641 1080.39 746.506C1081.73 745.924 1082.76 745.126 1083.43 744.046C1084.1 742.972 1084.36 741.715 1084.36 740.32H1082.36ZM1067.91 746.04C1059.19 746.04 1048.47 743.853 1041.21 738.917L1040.08 740.571C1047.79 745.811 1058.96 748.04 1067.91 748.04V746.04ZM1039.64 739.744V755.776H1041.64V739.744H1039.64ZM1040.14 756.64C1045.61 759.823 1056.16 762.728 1067.91 762.728V760.728C1056.42 760.728 1046.24 757.873 1041.15 754.912L1040.14 756.64ZM1067.91 762.728C1077.26 762.728 1085.66 761.602 1091.74 758.273C1094.8 756.599 1097.29 754.359 1099.01 751.42C1100.73 748.482 1101.64 744.904 1101.64 740.608H1099.64C1099.64 744.616 1098.79 747.83 1097.28 750.409C1095.78 752.987 1093.58 754.989 1090.78 756.519C1085.15 759.598 1077.18 760.728 1067.91 760.728V762.728ZM1101.64 740.608C1101.64 732.101 1098.08 726.627 1092.8 722.783C1087.59 718.998 1080.7 716.795 1074.07 714.695L1073.46 716.601C1080.17 718.725 1086.72 720.842 1091.62 724.401C1096.44 727.901 1099.64 732.795 1099.64 740.608H1101.64ZM1166.44 713.152L1165.83 712.36L1165.06 712.952L1165.63 713.737L1166.44 713.152ZM1198.79 688.192L1199.4 688.984L1201.73 687.192H1198.79V688.192ZM1174.7 688.192V687.192H1174.35L1174.07 687.41L1174.7 688.192ZM1144.36 712.384H1143.36V714.461L1144.98 713.166L1144.36 712.384ZM1144.36 688.192H1145.36V687.192H1144.36V688.192ZM1127.08 688.192V687.192H1126.08V688.192H1127.08ZM1127.08 760H1126.08V761H1127.08V760ZM1144.36 760V761H1145.36V760H1144.36ZM1144.36 729.952L1143.74 729.166L1143.36 729.466V729.952H1144.36ZM1153.77 722.56L1154.59 721.992L1153.99 721.116L1153.15 721.774L1153.77 722.56ZM1179.59 760L1178.77 760.568L1179.07 761H1179.59V760ZM1200.23 760V761H1202.19L1201.04 759.415L1200.23 760ZM1167.05 713.944L1199.4 688.984L1198.18 687.4L1165.83 712.36L1167.05 713.944ZM1198.79 687.192H1174.7V689.192H1198.79V687.192ZM1174.07 687.41L1143.74 711.602L1144.98 713.166L1175.32 688.974L1174.07 687.41ZM1145.36 712.384V688.192H1143.36V712.384H1145.36ZM1144.36 687.192H1127.08V689.192H1144.36V687.192ZM1126.08 688.192V760H1128.08V688.192H1126.08ZM1127.08 761H1144.36V759H1127.08V761ZM1145.36 760V729.952H1143.36V760H1145.36ZM1144.98 730.738L1154.39 723.346L1153.15 721.774L1143.74 729.166L1144.98 730.738ZM1152.95 723.128L1178.77 760.568L1180.42 759.432L1154.59 721.992L1152.95 723.128ZM1179.59 761H1200.23V759H1179.59V761ZM1201.04 759.415L1167.25 712.567L1165.63 713.737L1199.42 760.585L1201.04 759.415ZM1275.74 688.192V687.192H1275.13L1274.85 687.734L1275.74 688.192ZM1255.58 727.36L1254.69 727.828L1255.59 729.521L1256.46 727.818L1255.58 727.36ZM1234.84 688.192L1235.72 687.724L1235.44 687.192H1234.84V688.192ZM1216.41 688.192V687.192H1214.73L1215.53 688.665L1216.41 688.192ZM1241.85 735.52L1240.97 735.993L1241.25 736.52H1241.85V735.52ZM1251.16 735.52L1252.05 735.98L1252.8 734.52H1251.16V735.52ZM1238.49 760L1237.6 759.54L1236.84 761H1238.49V760ZM1255.86 760V761H1256.47L1256.75 760.46L1255.86 760ZM1293.11 688.192L1294 688.652L1294.76 687.192H1293.11V688.192ZM1274.85 687.734L1254.69 726.902L1256.46 727.818L1276.62 688.65L1274.85 687.734ZM1256.46 726.892L1235.72 687.724L1233.96 688.66L1254.69 727.828L1256.46 726.892ZM1234.84 687.192H1216.41V689.192H1234.84V687.192ZM1215.53 688.665L1240.97 735.993L1242.73 735.047L1217.29 687.719L1215.53 688.665ZM1241.85 736.52H1251.16V734.52H1241.85V736.52ZM1250.27 735.06L1237.6 759.54L1239.38 760.46L1252.05 735.98L1250.27 735.06ZM1238.49 761H1255.86V759H1238.49V761ZM1256.75 760.46L1294 688.652L1292.22 687.732L1254.98 759.54L1256.75 760.46ZM1293.11 687.192H1275.74V689.192H1293.11V687.192ZM1430.49 725.248H1431.49V724.248H1430.49V725.248ZM1413.79 725.248V724.248H1412.79V725.248H1413.79ZM1413.79 744.448L1414.13 745.387L1414.79 745.147V744.448H1413.79ZM1425.41 708.544L1424.88 709.391L1426.41 710.351V708.544H1425.41ZM1425.41 691.936H1426.41V691.376L1425.93 691.083L1425.41 691.936ZM1430.49 754.912L1431 755.774L1431.49 755.484V754.912H1430.49ZM1430.49 724.248H1413.79V726.248H1430.49V724.248ZM1412.79 725.248V744.448H1414.79V725.248H1412.79ZM1413.45 743.509C1409.66 744.894 1405.66 745.368 1401.02 745.368V747.368C1405.79 747.368 1410.05 746.882 1414.13 745.387L1413.45 743.509ZM1401.02 745.368C1394.11 745.368 1388.37 743.316 1384.37 739.676C1380.37 736.046 1378.02 730.759 1378.02 724.096H1376.02C1376.02 731.257 1378.57 737.106 1383.02 741.156C1387.47 745.196 1393.72 747.368 1401.02 747.368V745.368ZM1378.02 724.096C1378.02 717.259 1380.55 711.976 1384.7 708.388C1388.86 704.786 1394.73 702.824 1401.5 702.824V700.824C1394.36 700.824 1387.99 702.894 1383.39 706.876C1378.77 710.872 1376.02 716.725 1376.02 724.096H1378.02ZM1401.5 702.824C1410.45 702.824 1417.08 704.507 1424.88 709.391L1425.94 707.697C1417.8 702.597 1410.79 700.824 1401.5 700.824V702.824ZM1426.41 708.544V691.936H1424.41V708.544H1426.41ZM1425.93 691.083C1419.76 687.302 1410.53 685.464 1401.5 685.464V687.464C1410.33 687.464 1419.15 689.274 1424.88 692.789L1425.93 691.083ZM1401.5 685.464C1389.37 685.464 1378.56 688.924 1370.77 695.517C1362.96 702.126 1358.26 711.819 1358.26 724.096H1360.26C1360.26 712.373 1364.73 703.25 1372.06 697.043C1379.42 690.82 1389.73 687.464 1401.5 687.464V685.464ZM1358.26 724.096C1358.26 735.872 1362.54 745.562 1370.08 752.298C1377.61 759.023 1388.3 762.728 1401.02 762.728V760.728C1388.68 760.728 1378.5 757.137 1371.41 750.806C1364.34 744.486 1360.26 735.36 1360.26 724.096H1358.26ZM1401.02 762.728C1412.77 762.728 1424.29 759.724 1431 755.774L1429.99 754.05C1423.65 757.78 1412.5 760.728 1401.02 760.728V762.728ZM1431.49 754.912V725.248H1429.49V754.912H1431.49ZM1524.14 760V761H1525.98L1524.98 759.454L1524.14 760ZM1505.32 731.104L1504.91 730.192L1503.85 730.67L1504.48 731.65L1505.32 731.104ZM1518.38 711.232H1519.38L1519.38 711.226L1518.38 711.232ZM1457.42 688.192V687.192H1456.42V688.192H1457.42ZM1457.42 760H1456.42V761H1457.42V760ZM1474.7 760V761H1475.7V760H1474.7ZM1474.7 734.176V733.176H1473.7V734.176H1474.7ZM1489.1 734.176L1489.95 733.655L1489.66 733.176H1489.1V734.176ZM1504.84 760L1503.99 760.521L1504.28 761H1504.84V760ZM1474.7 702.304V701.304H1473.7V702.304H1474.7ZM1474.7 720.448H1473.7V721.448H1474.7V720.448ZM1524.98 759.454L1506.16 730.558L1504.48 731.65L1523.3 760.546L1524.98 759.454ZM1505.73 732.016C1509.6 730.28 1513.02 727.779 1515.47 724.341C1517.93 720.894 1519.38 716.559 1519.38 711.232H1517.38C1517.38 716.177 1516.04 720.098 1513.84 723.179C1511.64 726.269 1508.53 728.568 1504.91 730.192L1505.73 732.016ZM1519.38 711.226C1519.33 702.923 1516.13 696.85 1510.65 692.89C1505.22 688.964 1497.66 687.192 1489 687.192V689.192C1497.43 689.192 1504.52 690.924 1509.48 694.51C1514.39 698.062 1517.33 703.509 1517.38 711.238L1519.38 711.226ZM1489 687.192H1457.42V689.192H1489V687.192ZM1456.42 688.192V760H1458.42V688.192H1456.42ZM1457.42 761H1474.7V759H1457.42V761ZM1475.7 760V734.176H1473.7V760H1475.7ZM1474.7 735.176H1489.1V733.176H1474.7V735.176ZM1488.24 734.697L1503.99 760.521L1505.7 759.479L1489.95 733.655L1488.24 734.697ZM1504.84 761H1524.14V759H1504.84V761ZM1474.7 703.304H1488.81V701.304H1474.7V703.304ZM1488.81 703.304C1492.17 703.304 1494.91 703.938 1496.79 705.218C1498.61 706.458 1499.71 708.37 1499.71 711.232H1501.71C1501.71 707.758 1500.32 705.206 1497.92 703.566C1495.57 701.966 1492.37 701.304 1488.81 701.304V703.304ZM1499.71 711.232C1499.71 714.263 1498.61 716.244 1496.84 717.509C1495 718.815 1492.31 719.448 1489 719.448V721.448C1492.51 721.448 1495.68 720.785 1497.99 719.139C1500.37 717.452 1501.71 714.825 1501.71 711.232H1499.71ZM1489 719.448H1474.7V721.448H1489V719.448ZM1475.7 720.448V702.304H1473.7V720.448H1475.7ZM1585.89 685.464C1573.07 685.464 1562.3 689.242 1554.73 696.002C1547.14 702.771 1542.84 712.459 1542.84 724.096H1544.84C1544.84 712.981 1548.93 703.853 1556.06 697.494C1563.2 691.126 1573.45 687.464 1585.89 687.464V685.464ZM1542.84 724.096C1542.84 735.686 1547.14 745.373 1554.73 752.154C1562.3 758.925 1573.07 762.728 1585.89 762.728V760.728C1573.46 760.728 1563.2 757.043 1556.06 750.662C1548.93 744.291 1544.84 735.162 1544.84 724.096H1542.84ZM1585.89 762.728C1598.8 762.728 1609.59 758.926 1617.16 752.154C1624.75 745.372 1629.03 735.684 1629.03 724.096H1627.03C1627.03 735.164 1622.96 744.292 1615.83 750.662C1608.69 757.042 1598.41 760.728 1585.89 760.728V762.728ZM1629.03 724.096C1629.03 712.461 1624.75 702.772 1617.16 696.002C1609.59 689.242 1598.8 685.464 1585.89 685.464V687.464C1598.41 687.464 1608.7 691.126 1615.83 697.494C1622.96 703.852 1627.03 712.979 1627.03 724.096H1629.03ZM1585.89 745.368C1579.13 745.368 1573.3 743.295 1569.19 739.633C1565.08 735.981 1562.6 730.691 1562.6 724.096H1560.6C1560.6 731.229 1563.3 737.075 1567.86 741.127C1572.4 745.169 1578.72 747.368 1585.89 747.368V745.368ZM1562.6 724.096C1562.6 717.501 1565.08 712.211 1569.19 708.559C1573.3 704.897 1579.13 702.824 1585.89 702.824V700.824C1578.72 700.824 1572.4 703.023 1567.86 707.065C1563.3 711.117 1560.6 716.963 1560.6 724.096H1562.6ZM1585.89 702.824C1592.74 702.824 1598.59 704.899 1602.7 708.559C1606.81 712.209 1609.27 717.498 1609.27 724.096H1611.27C1611.27 716.966 1608.59 711.119 1604.03 707.065C1599.49 703.021 1593.14 700.824 1585.89 700.824V702.824ZM1609.27 724.096C1609.27 730.694 1606.81 735.983 1602.7 739.633C1598.59 743.293 1592.74 745.368 1585.89 745.368V747.368C1593.14 747.368 1599.49 745.171 1604.03 741.127C1608.59 737.073 1611.27 731.226 1611.27 724.096H1609.27ZM1707.07 688.192V687.192H1706.07V688.192H1707.07ZM1671.74 688.192H1672.74V687.192H1671.74V688.192ZM1654.46 688.192V687.192H1653.46V688.192H1654.46ZM1724.35 688.192H1725.35V687.192H1724.35V688.192ZM1706.07 688.192V730.816H1708.07V688.192H1706.07ZM1706.07 730.816C1706.07 735.795 1704.82 739.36 1702.24 741.705C1699.65 744.068 1695.53 745.368 1689.41 745.368V747.368C1695.76 747.368 1700.47 746.028 1703.59 743.183C1706.73 740.32 1708.07 736.109 1708.07 730.816H1706.07ZM1689.41 745.368C1683.28 745.368 1679.16 744.068 1676.57 741.705C1674 739.36 1672.74 735.795 1672.74 730.816H1670.74C1670.74 736.109 1672.08 740.32 1675.22 743.183C1678.34 746.028 1683.05 747.368 1689.41 747.368V745.368ZM1672.74 730.816V688.192H1670.74V730.816H1672.74ZM1671.74 687.192H1654.46V689.192H1671.74V687.192ZM1653.46 688.192V730.72H1655.46V688.192H1653.46ZM1653.46 730.72C1653.46 740.705 1656.36 748.76 1662.4 754.305C1668.44 759.837 1677.45 762.728 1689.41 762.728V760.728C1677.75 760.728 1669.29 757.907 1663.75 752.831C1658.23 747.768 1655.46 740.319 1655.46 730.72H1653.46ZM1689.41 762.728C1701.36 762.728 1710.38 759.837 1716.41 754.305C1722.46 748.76 1725.35 740.705 1725.35 730.72H1723.35C1723.35 740.319 1720.58 747.768 1715.06 752.831C1709.52 757.907 1701.07 760.728 1689.41 760.728V762.728ZM1725.35 730.72V688.192H1723.35V730.72H1725.35ZM1724.35 687.192H1707.07V689.192H1724.35V687.192ZM1753.13 688.192V687.192H1752.13V688.192H1753.13ZM1753.13 760H1752.13V761H1753.13V760ZM1770.41 760V761H1771.41V760H1770.41ZM1770.41 735.808V734.808H1769.41V735.808H1770.41ZM1770.41 721.696H1769.41V722.696H1770.41V721.696ZM1770.41 702.496V701.496H1769.41V702.496H1770.41ZM1785.57 687.192H1753.13V689.192H1785.57V687.192ZM1752.13 688.192V760H1754.13V688.192H1752.13ZM1753.13 761H1770.41V759H1753.13V761ZM1771.41 760V735.808H1769.41V760H1771.41ZM1770.41 736.808H1785.67V734.808H1770.41V736.808ZM1785.67 736.808C1794.38 736.808 1801.9 734.937 1807.26 730.856C1812.67 726.742 1815.76 720.478 1815.76 712H1813.76C1813.76 719.938 1810.89 725.578 1806.05 729.264C1801.17 732.983 1794.14 734.808 1785.67 734.808V736.808ZM1815.76 712C1815.76 703.566 1812.64 697.303 1807.21 693.18C1801.83 689.088 1794.29 687.192 1785.57 687.192V689.192C1794.04 689.192 1801.09 691.04 1806 694.772C1810.87 698.473 1813.76 704.114 1813.76 712H1815.76ZM1785.57 720.696H1770.41V722.696H1785.57V720.696ZM1771.41 721.696V702.496H1769.41V721.696H1771.41ZM1770.41 703.496H1785.38V701.496H1770.41V703.496ZM1785.38 703.496C1788.72 703.496 1791.43 704.195 1793.28 705.567C1795.09 706.905 1796.19 708.966 1796.19 712H1798.19C1798.19 708.41 1796.84 705.719 1794.47 703.961C1792.15 702.237 1788.95 701.496 1785.38 701.496V703.496ZM1796.19 712C1796.19 715.096 1795.1 717.208 1793.33 718.576C1791.51 719.976 1788.86 720.696 1785.57 720.696V722.696C1789.11 722.696 1792.26 721.928 1794.55 720.16C1796.88 718.36 1798.19 715.624 1798.19 712H1796.19Z"
                  fill="#F4F4F4"/>
            <g opacity="0.1">
                <path fill-rule="evenodd" clip-rule="evenodd"
                      d="M600.5 705C658.214 705 705 658.214 705 600.5C705 542.786 658.214 496 600.5 496C542.786 496 496 542.786 496 600.5C496 658.214 542.786 705 600.5 705ZM600.5 706C658.766 706 706 658.766 706 600.5C706 542.234 658.766 495 600.5 495C542.234 495 495 542.234 495 600.5C495 658.766 542.234 706 600.5 706Z"
                      fill="#F4F4F4"/>
                <path fill-rule="evenodd" clip-rule="evenodd"
                      d="M600.5 787C703.501 787 787 703.501 787 600.5C787 497.499 703.501 414 600.5 414C497.499 414 414 497.499 414 600.5C414 703.501 497.499 787 600.5 787ZM600.5 788C704.053 788 788 704.053 788 600.5C788 496.947 704.053 413 600.5 413C496.947 413 413 496.947 413 600.5C413 704.053 496.947 788 600.5 788Z"
                      fill="#F4F4F4"/>
                <path fill-rule="evenodd" clip-rule="evenodd"
                      d="M600.5 865C746.579 865 865 746.579 865 600.5C865 454.421 746.579 336 600.5 336C454.421 336 336 454.421 336 600.5C336 746.579 454.421 865 600.5 865ZM600.5 866C747.132 866 866 747.132 866 600.5C866 453.868 747.132 335 600.5 335C453.868 335 335 453.868 335 600.5C335 747.132 453.868 866 600.5 866Z"
                      fill="#F4F4F4"/>
                <path fill-rule="evenodd" clip-rule="evenodd"
                      d="M600.5 946C791.314 946 946 791.314 946 600.5C946 409.686 791.314 255 600.5 255C409.686 255 255 409.686 255 600.5C255 791.314 409.686 946 600.5 946ZM600.5 947C791.867 947 947 791.867 947 600.5C947 409.133 791.867 254 600.5 254C409.133 254 254 409.133 254 600.5C254 791.867 409.133 947 600.5 947Z"
                      fill="#F4F4F4"/>
                <path fill-rule="evenodd" clip-rule="evenodd"
                      d="M600.5 1028C836.602 1028 1028 836.602 1028 600.5C1028 364.398 836.602 173 600.5 173C364.398 173 173 364.398 173 600.5C173 836.602 364.398 1028 600.5 1028ZM600.5 1029C837.154 1029 1029 837.154 1029 600.5C1029 363.846 837.154 172 600.5 172C363.846 172 172 363.846 172 600.5C172 837.154 363.846 1029 600.5 1029Z"
                      fill="#F4F4F4"/>
                <path fill-rule="evenodd" clip-rule="evenodd"
                      d="M600.5 1113C883.546 1113 1113 883.546 1113 600.5C1113 317.454 883.546 88 600.5 88C317.454 88 88 317.454 88 600.5C88 883.546 317.454 1113 600.5 1113ZM600.5 1114C884.098 1114 1114 884.098 1114 600.5C1114 316.902 884.098 87 600.5 87C316.902 87 87 316.902 87 600.5C87 884.098 316.902 1114 600.5 1114Z"
                      fill="#F4F4F4"/>
                <path fill-rule="evenodd" clip-rule="evenodd"
                      d="M600.5 1200C931.595 1200 1200 931.595 1200 600.5C1200 269.405 931.595 1 600.5 1C269.405 1 1 269.405 1 600.5C1 931.595 269.405 1200 600.5 1200ZM600.5 1201C932.147 1201 1201 932.147 1201 600.5C1201 268.853 932.147 0 600.5 0C268.853 0 0 268.853 0 600.5C0 932.147 268.853 1201 600.5 1201Z"
                      fill="#F4F4F4"/>
            </g>
        </svg>