<svg width="1172" height="933" viewBox="0 0 1172 933" fill="none" xmlns="http://www.w3.org/2000/svg">
<g opacity="0.1">
<path fill-rule="evenodd" clip-rule="evenodd" d="M571.5 437C629.214 437 676 390.214 676 332.5C676 274.786 629.214 228 571.5 228C513.786 228 467 274.786 467 332.5C467 390.214 513.786 437 571.5 437ZM571.5 438C629.766 438 677 390.766 677 332.5C677 274.234 629.766 227 571.5 227C513.234 227 466 274.234 466 332.5C466 390.766 513.234 438 571.5 438Z" fill="#F4F4F4"/>
<path fill-rule="evenodd" clip-rule="evenodd" d="M571.5 519C674.501 519 758 435.501 758 332.5C758 229.499 674.501 146 571.5 146C468.499 146 385 229.499 385 332.5C385 435.501 468.499 519 571.5 519ZM571.5 520C675.053 520 759 436.053 759 332.5C759 228.947 675.053 145 571.5 145C467.947 145 384 228.947 384 332.5C384 436.053 467.947 520 571.5 520Z" fill="#F4F4F4"/>
<path fill-rule="evenodd" clip-rule="evenodd" d="M571.5 597C717.579 597 836 478.579 836 332.5C836 186.421 717.579 68 571.5 68C425.421 68 307 186.421 307 332.5C307 478.579 425.421 597 571.5 597ZM571.5 598C718.132 598 837 479.132 837 332.5C837 185.868 718.132 67 571.5 67C424.868 67 306 185.868 306 332.5C306 479.132 424.868 598 571.5 598Z" fill="#F4F4F4"/>
<path fill-rule="evenodd" clip-rule="evenodd" d="M571.5 678C762.314 678 917 523.314 917 332.5C917 141.686 762.314 -13 571.5 -13C380.686 -13 226 141.686 226 332.5C226 523.314 380.686 678 571.5 678ZM571.5 679C762.867 679 918 523.867 918 332.5C918 141.133 762.867 -14 571.5 -14C380.133 -14 225 141.133 225 332.5C225 523.867 380.133 679 571.5 679Z" fill="#F4F4F4"/>
<path fill-rule="evenodd" clip-rule="evenodd" d="M571.5 760C807.602 760 999 568.602 999 332.5C999 96.3983 807.602 -95 571.5 -95C335.398 -95 144 96.3983 144 332.5C144 568.602 335.398 760 571.5 760ZM571.5 761C808.154 761 1000 569.154 1000 332.5C1000 95.846 808.154 -96 571.5 -96C334.846 -96 143 95.846 143 332.5C143 569.154 334.846 761 571.5 761Z" fill="#F4F4F4"/>
<path fill-rule="evenodd" clip-rule="evenodd" d="M571.5 845C854.546 845 1084 615.546 1084 332.5C1084 49.4541 854.546 -180 571.5 -180C288.454 -180 59 49.4541 59 332.5C59 615.546 288.454 845 571.5 845ZM571.5 846C855.098 846 1085 616.098 1085 332.5C1085 48.9018 855.098 -181 571.5 -181C287.902 -181 58 48.9018 58 332.5C58 616.098 287.902 846 571.5 846Z" fill="#F4F4F4"/>
<path fill-rule="evenodd" clip-rule="evenodd" d="M571.5 932C902.595 932 1171 663.595 1171 332.5C1171 1.4053 902.595 -267 571.5 -267C240.405 -267 -28 1.4053 -28 332.5C-28 663.595 240.405 932 571.5 932ZM571.5 933C903.147 933 1172 664.147 1172 332.5C1172 0.852997 903.147 -268 571.5 -268C239.853 -268 -29 0.852997 -29 332.5C-29 664.147 239.853 933 571.5 933Z" fill="#F4F4F4"/>
</g>
</svg>
