<svg width="154" height="48" viewBox="0 0 154 48" fill="none" xmlns="http://www.w3.org/2000/svg">
    <path d="M47.1988 25.7956C47.1988 27.9187 45.6601 28.8728 43.4339 28.8728H41.4569V32.0016H39.222V22.7097H43.4253C45.6429 22.7097 47.1988 23.681 47.1988 25.7956ZM44.9295 25.7956C44.9295 24.936 44.2934 24.5664 43.3995 24.5664H41.4655V27.0505H43.4253C44.302 27.0505 44.9295 26.6637 44.9295 25.7956Z"
          fill="#F4F4F4"/>
    <path d="M62.3273 27.3601C62.3273 30.2912 60.1612 32.2338 56.869 32.2338C53.6027 32.2338 51.428 30.2912 51.428 27.3601C51.428 24.4118 53.6027 22.4863 56.869 22.4863C60.1698 22.4863 62.3273 24.4118 62.3273 27.3601ZM60.0322 27.3601C60.0322 25.5808 58.6999 24.4805 56.8776 24.4805C55.0725 24.4805 53.7316 25.5894 53.7316 27.3601C53.7316 29.1308 55.0725 30.2396 56.8776 30.2396C58.6999 30.2396 60.0322 29.1394 60.0322 27.3601Z"
          fill="#F4F4F4"/>
    <path d="M74.9714 25.7956C74.9714 27.9187 73.4328 28.8728 71.2065 28.8728H69.2295V32.0016H66.9946V22.7097H71.1979C73.4242 22.7097 74.9714 23.681 74.9714 25.7956ZM72.7022 25.7956C72.7022 24.936 72.0661 24.5664 71.1721 24.5664H69.2381V27.0505H71.1979C72.0833 27.0505 72.7022 26.6637 72.7022 25.7956Z"
          fill="#F4F4F4"/>
    <path d="M86.7733 30.0848V32.0102H79.5186V22.7097H81.7534V30.0848H86.7733Z" fill="#F4F4F4"/>
    <path d="M98.4462 30.1707H93.1771L92.3777 32.0102H90.0311L94.1656 22.7183H97.4835L101.618 32.0102H99.2456L98.4462 30.1707ZM93.9249 28.3828H97.6984L95.8074 23.956L93.9249 28.3828Z"
          fill="#F4F4F4"/>
    <path d="M115.096 22.7097L111.297 32.0016H107.755L103.965 22.7097H106.303L109.535 30.7639L112.775 22.7097H115.096Z"
          fill="#F4F4F4"/>
    <path d="M126.597 29.5003C126.597 31.6493 124.766 32.2338 122.359 32.2338C120.855 32.2338 119.514 31.8642 118.827 31.4602V29.3886C119.798 30.0505 121.216 30.3341 122.359 30.3341C123.864 30.3341 124.362 30.1192 124.362 29.466C124.362 28.7611 123.279 28.4259 122.093 28.0391C120.468 27.5061 118.887 26.9818 118.887 25.0822C118.887 23.1395 120.941 22.4949 122.978 22.4949C124.259 22.4949 125.48 22.7527 126.262 23.2169V25.3057C125.54 24.7555 124.414 24.4031 123.004 24.4031C121.895 24.4031 121.13 24.5406 121.13 25.108C121.13 25.7268 121.912 25.8902 123.133 26.277C124.844 26.8185 126.597 27.3858 126.597 29.5003Z"
          fill="#F4F4F4"/>
    <path d="M140.737 32.0102H138.064L134.72 27.1623L133.499 28.1164V32.0016H131.264V22.7097H133.499V25.8385L137.428 22.7097H140.548L136.362 25.9417L140.737 32.0102Z"
          fill="#F4F4F4"/>
    <path d="M154 22.7098L149.178 32.0017H146.926L148.567 28.8299H147.364L144.072 22.7012H146.462L149.143 27.7726L151.756 22.7012H154V22.7098Z"
          fill="#F4F4F4"/>
    <path d="M48.1357 46.3306C47.2934 46.8292 45.8235 47.216 44.3193 47.216C41.0787 47.216 38.9126 45.3249 38.9126 42.3422C38.9126 39.2392 41.285 37.4685 44.3794 37.4685C45.5313 37.4685 46.7003 37.7006 47.4739 38.1734V40.3223C46.4424 39.6776 45.5571 39.4541 44.3794 39.4541C42.5744 39.4541 41.2076 40.4942 41.2076 42.3337C41.2076 44.1216 42.4712 45.2132 44.3107 45.2132C44.921 45.2132 45.4539 45.153 45.961 44.9639V42.4798H48.1357V46.3306Z"
          fill="#F4F4F4"/>
    <path d="M59.0006 46.9841L56.9635 43.6403H55.0982V46.9841H52.8633V37.6921H56.9549C59.164 37.6921 60.7456 38.5947 60.7542 40.6748C60.7542 42.0072 60.0321 42.8152 59.0608 43.2449L61.4934 46.9841H59.0006ZM55.0982 41.8696H56.9463C57.8316 41.8696 58.4591 41.5344 58.4591 40.6748C58.4591 39.8582 57.8144 39.523 56.9205 39.523H55.0982V41.8696Z"
          fill="#F4F4F4"/>
    <path d="M76.192 42.3422C76.192 45.2734 74.0345 47.216 70.7337 47.216C67.4674 47.216 65.2927 45.2734 65.2927 42.3422C65.2927 39.3939 67.4674 37.4685 70.7337 37.4685C74.0345 37.4685 76.192 39.3939 76.192 42.3422ZM73.8969 42.3422C73.8969 40.5629 72.5646 39.4627 70.7423 39.4627C68.9372 39.4627 67.5963 40.5715 67.5963 42.3422C67.5963 44.1216 68.9372 45.2218 70.7423 45.2218C72.5646 45.2218 73.8969 44.1216 73.8969 42.3422Z"
          fill="#F4F4F4"/>
    <path d="M89.9107 37.6921V43.1934C89.9107 45.7291 88.4409 47.2075 85.3894 47.2075C82.338 47.2075 80.8681 45.7291 80.8681 43.1934V37.6921H83.103V43.2106C83.103 44.5429 83.7734 45.2219 85.3894 45.2219C87.0054 45.2219 87.6759 44.5429 87.6759 43.2106V37.6921H89.9107Z"
          fill="#F4F4F4"/>
    <path d="M102.864 40.778C102.864 42.9011 101.326 43.8552 99.0995 43.8552H97.1224V46.9841H94.8876V37.6921H99.0909C101.309 37.6921 102.864 38.6634 102.864 40.778ZM100.587 40.778C100.587 39.9184 99.9504 39.5488 99.0565 39.5488H97.1139V42.033H99.0737C99.9676 42.033 100.587 41.6461 100.587 40.778Z"
          fill="#F4F4F4"/>
    <path d="M0 18.9964V9.99676L15.0166 0L30.0419 10.1343V18.9964L15.0166 9.49821L0 18.9964Z" fill="#F4F4F4"/>
    <path d="M0 22.6926H7.68453V30.4631C7.68453 30.4631 8.01116 36.2824 15.0252 36.2824C21.6353 36.2824 22.1854 30.4459 22.1854 30.4459H15.0166V22.7012H29.9473V30.4803C29.9473 30.4803 29.7582 43.6489 14.9823 43.6489C0.163318 43.6489 0 30.4717 0 30.4717V22.6926Z"
          fill="#F4F4F4"/>
    <path opacity="0.71" d="M15.0167 0V9.49821L30.0419 18.9964V10.1343L15.0167 0Z" fill="#F4F4F4"/>
    <path opacity="0.4" d="M0 18.9964V9.98817V9.99676L15.0166 0V9.49821L0 18.9964Z" fill="#F4F4F4"/>
    <path opacity="0.6"
          d="M22.1768 30.4545C22.2456 30.3341 22.7098 27.317 22.4519 22.7012L15.0081 22.7184V30.4631L22.1768 30.4545Z"
          fill="#F4F4F4"/>
    <path opacity="0.6"
          d="M14.9651 43.0212C0.163318 43.0212 0 29.8354 0 29.8354V30.4715C0 30.4715 0.163318 43.6573 14.9651 43.6573C29.7496 43.6573 29.9301 30.4887 29.9301 30.4887V29.8526C29.9387 29.8526 29.7496 43.0212 14.9651 43.0212Z"
          fill="#F4F4F4"/>
</svg>
