<svg width="1058" height="128" viewBox="0 0 1058 128" fill="none" xmlns="http://www.w3.org/2000/svg" style="margin: 0 20px;">
<path opacity="1" d="M74.304 96L73.3884 96.4021L73.651 97H74.304V96ZM92.64 96V97H94.1798L93.5536 95.5933L92.64 96ZM60.672 24.192L61.5856 23.7853L61.3214 23.192H60.672V24.192ZM35.04 24.192V23.192H34.3906L34.1264 23.7853L35.04 24.192ZM3.072 96L2.15844 95.5933L1.53219 97H3.072V96ZM21.216 96V97H21.8731L22.1339 96.3969L21.216 96ZM27.36 81.792V80.792H26.7029L26.4421 81.3951L27.36 81.792ZM68.064 81.792L68.9796 81.3899L68.717 80.792H68.064V81.792ZM47.712 33.792L48.6317 33.3993L47.712 31.2453L46.7923 33.3993L47.712 33.792ZM62.304 67.968V68.968H63.8183L63.2237 67.5753L62.304 67.968ZM33.12 67.968L32.2003 67.5753L31.6057 68.968H33.12V67.968ZM74.304 97H92.64V95H74.304V97ZM93.5536 95.5933L61.5856 23.7853L59.7584 24.5987L91.7264 96.4067L93.5536 95.5933ZM60.672 23.192H35.04V25.192H60.672V23.192ZM34.1264 23.7853L2.15844 95.5933L3.98556 96.4067L35.9536 24.5987L34.1264 23.7853ZM3.072 97H21.216V95H3.072V97ZM22.1339 96.3969L28.2779 82.1889L26.4421 81.3951L20.2981 95.6031L22.1339 96.3969ZM27.36 82.792H68.064V80.792H27.36V82.792ZM67.1484 82.1941L73.3884 96.4021L75.2196 95.5979L68.9796 81.3899L67.1484 82.1941ZM46.7923 34.1847L61.3843 68.3607L63.2237 67.5753L48.6317 33.3993L46.7923 34.1847ZM62.304 66.968H33.12V68.968H62.304V66.968ZM34.0397 68.3607L48.6317 34.1847L46.7923 33.3993L32.2003 67.5753L34.0397 68.3607ZM114.919 24.192V23.192H113.919V24.192H114.919ZM114.919 96H113.919V97H114.919V96ZM132.199 96V97H133.199V96H132.199ZM132.199 71.808V70.808H131.199V71.808H132.199ZM132.199 57.696H131.199V58.696H132.199V57.696ZM132.199 38.496V37.496H131.199V38.496H132.199ZM147.367 23.192H114.919V25.192H147.367V23.192ZM113.919 24.192V96H115.919V24.192H113.919ZM114.919 97H132.199V95H114.919V97ZM133.199 96V71.808H131.199V96H133.199ZM132.199 72.808H147.463V70.808H132.199V72.808ZM147.463 72.808C156.177 72.808 163.695 70.9367 169.056 66.8557C174.461 62.7422 177.551 56.4776 177.551 48H175.551C175.551 55.9384 172.688 61.5778 167.845 65.2643C162.959 68.9833 155.932 70.808 147.463 70.808V72.808ZM177.551 48C177.551 39.566 174.434 33.3031 169.008 29.1798C163.624 25.0884 156.084 23.192 147.367 23.192V25.192C155.834 25.192 162.886 27.0396 167.798 30.7722C172.668 34.4729 175.551 40.114 175.551 48H177.551ZM147.367 56.696H132.199V58.696H147.367V56.696ZM133.199 57.696V38.496H131.199V57.696H133.199ZM132.199 39.496H147.175V37.496H132.199V39.496ZM147.175 39.496C150.514 39.496 153.224 40.1951 155.075 41.5673C156.879 42.9046 157.983 44.9657 157.983 48H159.983C159.983 44.4103 158.639 41.7194 156.266 39.9607C153.941 38.2369 150.747 37.496 147.175 37.496V39.496ZM157.983 48C157.983 51.096 156.892 53.2081 155.12 54.5764C153.306 55.9764 150.65 56.696 147.367 56.696V58.696C150.9 58.696 154.051 57.9276 156.342 56.1596C158.673 54.3599 159.983 51.624 159.983 48H157.983ZM271.541 96V97H273.369L272.383 95.4608L271.541 96ZM246.773 57.312L245.937 56.764L245.582 57.3058L245.931 57.8512L246.773 57.312ZM268.469 24.192L269.306 24.74L270.32 23.192H268.469V24.192ZM249.749 24.192V23.192H249.2L248.906 23.6549L249.749 24.192ZM232.085 51.936L231.244 52.4772L232.09 53.7908L232.929 52.4731L232.085 51.936ZM214.229 24.192L215.07 23.6508L214.775 23.192H214.229V24.192ZM195.413 24.192V23.192H193.549L194.58 24.745L195.413 24.192ZM217.397 57.312L218.233 57.8614L218.596 57.3094L218.23 56.759L217.397 57.312ZM191.957 96L191.122 95.4506L190.103 97H191.957V96ZM210.773 96V97H211.323L211.617 96.5361L210.773 96ZM231.989 62.592L232.839 62.0646L231.999 60.7114L231.145 62.0559L231.989 62.592ZM252.725 96L251.876 96.5274L252.169 97H252.725V96ZM272.383 95.4608L247.615 56.7728L245.931 57.8512L270.699 96.5392L272.383 95.4608ZM247.61 57.86L269.306 24.74L267.633 23.644L245.937 56.764L247.61 57.86ZM268.469 23.192H249.749V25.192H268.469V23.192ZM248.906 23.6549L231.242 51.3989L232.929 52.4731L250.593 24.7291L248.906 23.6549ZM232.926 51.3948L215.07 23.6508L213.388 24.7332L231.244 52.4772L232.926 51.3948ZM214.229 23.192H195.413V25.192H214.229V23.192ZM194.58 24.745L216.564 57.865L218.23 56.759L196.246 23.639L194.58 24.745ZM216.562 56.7626L191.122 95.4506L192.793 96.5494L218.233 57.8614L216.562 56.7626ZM191.957 97H210.773V95H191.957V97ZM211.617 96.5361L232.833 63.1281L231.145 62.0559L209.929 95.4639L211.617 96.5361ZM231.14 63.1194L251.876 96.5274L253.575 95.4726L232.839 62.0646L231.14 63.1194ZM252.725 97H271.541V95H252.725V97ZM341.777 24.192V23.192H341.157L340.881 23.7481L341.777 24.192ZM310.961 86.4H309.961L311.857 86.8439L310.961 86.4ZM310.961 24.192H311.961V23.192H310.961V24.192ZM293.681 24.192V23.192H292.681V24.192H293.681ZM293.681 96H292.681V97H293.681V96ZM322.577 96V97H323.2L323.475 96.4411L322.577 96ZM353.105 33.888H354.105L352.208 33.4469L353.105 33.888ZM353.105 96H352.105V97H353.105V96ZM370.385 96V97H371.385V96H370.385ZM370.385 24.192H371.385V23.192H370.385V24.192ZM340.881 23.7481L310.065 85.9561L311.857 86.8439L342.673 24.6359L340.881 23.7481ZM311.961 86.4V24.192H309.961V86.4H311.961ZM310.961 23.192H293.681V25.192H310.961V23.192ZM292.681 24.192V96H294.681V24.192H292.681ZM293.681 97H322.577V95H293.681V97ZM323.475 96.4411L354.003 34.3291L352.208 33.4469L321.68 95.5589L323.475 96.4411ZM352.105 33.888V96H354.105V33.888H352.105ZM353.105 97H370.385V95H353.105V97ZM371.385 96V24.192H369.385V96H371.385ZM370.385 23.192H341.777V25.192H370.385V23.192ZM463.123 24.192H464.123V23.192H463.123V24.192ZM392.467 24.192V23.192H391.467V24.192H392.467ZM392.467 39.072H391.467V40.072H392.467V39.072ZM419.155 39.072H420.155V38.072H419.155V39.072ZM419.155 96H418.155V97H419.155V96ZM436.435 96V97H437.435V96H436.435ZM436.435 39.072V38.072H435.435V39.072H436.435ZM463.123 39.072V40.072H464.123V39.072H463.123ZM463.123 23.192H392.467V25.192H463.123V23.192ZM391.467 24.192V39.072H393.467V24.192H391.467ZM392.467 40.072H419.155V38.072H392.467V40.072ZM418.155 39.072V96H420.155V39.072H418.155ZM419.155 97H436.435V95H419.155V97ZM437.435 96V39.072H435.435V96H437.435ZM436.435 40.072H463.123V38.072H436.435V40.072ZM464.123 39.072V24.192H462.123V39.072H464.123ZM502.474 81.696H501.474V82.696H502.474V81.696ZM502.474 64.992V63.992H501.474V64.992H502.474ZM540.874 64.992V65.992H541.874V64.992H540.874ZM540.874 51.168H541.874V50.168H540.874V51.168ZM502.474 51.168H501.474V52.168H502.474V51.168ZM502.474 38.496V37.496H501.474V38.496H502.474ZM542.602 38.496V39.496H543.602V38.496H542.602ZM542.602 24.192H543.602V23.192H542.602V24.192ZM485.194 24.192V23.192H484.194V24.192H485.194ZM485.194 96H484.194V97H485.194V96ZM543.178 96V97H544.178V96H543.178ZM543.178 81.696H544.178V80.696H543.178V81.696ZM503.474 81.696V64.992H501.474V81.696H503.474ZM502.474 65.992H540.874V63.992H502.474V65.992ZM541.874 64.992V51.168H539.874V64.992H541.874ZM540.874 50.168H502.474V52.168H540.874V50.168ZM503.474 51.168V38.496H501.474V51.168H503.474ZM502.474 39.496H542.602V37.496H502.474V39.496ZM543.602 38.496V24.192H541.602V38.496H543.602ZM542.602 23.192H485.194V25.192H542.602V23.192ZM484.194 24.192V96H486.194V24.192H484.194ZM485.194 97H543.178V95H485.194V97ZM544.178 96V81.696H542.178V96H544.178ZM543.178 80.696H502.474V82.696H543.178V80.696ZM608.966 49.152L608.355 48.3602L607.589 48.9517L608.155 49.737L608.966 49.152ZM641.318 24.192L641.929 24.9837L644.251 23.192H641.318V24.192ZM617.222 24.192V23.192H616.872L616.599 23.4102L617.222 24.192ZM586.886 48.384H585.886V50.4605L587.51 49.1658L586.886 48.384ZM586.886 24.192H587.886V23.192H586.886V24.192ZM569.606 24.192V23.192H568.606V24.192H569.606ZM569.606 96H568.606V97H569.606V96ZM586.886 96V97H587.886V96H586.886ZM586.886 65.952L586.268 65.1657L585.886 65.466V65.952H586.886ZM596.294 58.56L597.117 57.9922L596.513 57.1162L595.676 57.7737L596.294 58.56ZM622.118 96L621.295 96.5678L621.593 97H622.118V96ZM642.758 96V97H644.713L643.569 95.415L642.758 96ZM609.577 49.9437L641.929 24.9837L640.707 23.4002L608.355 48.3602L609.577 49.9437ZM641.318 23.192H617.222V25.192H641.318V23.192ZM616.599 23.4102L586.263 47.6022L587.51 49.1658L617.846 24.9738L616.599 23.4102ZM587.886 48.384V24.192H585.886V48.384H587.886ZM586.886 23.192H569.606V25.192H586.886V23.192ZM568.606 24.192V96H570.606V24.192H568.606ZM569.606 97H586.886V95H569.606V97ZM587.886 96V65.952H585.886V96H587.886ZM587.504 66.7383L596.912 59.3463L595.676 57.7737L586.268 65.1657L587.504 66.7383ZM595.471 59.1278L621.295 96.5678L622.941 95.4322L597.117 57.9922L595.471 59.1278ZM622.118 97H642.758V95H622.118V97ZM643.569 95.415L609.777 48.567L608.155 49.737L641.947 96.585L643.569 95.415ZM729.205 24.192H730.205V23.192H729.205V24.192ZM658.549 24.192V23.192H657.549V24.192H658.549ZM658.549 39.072H657.549V40.072H658.549V39.072ZM685.237 39.072H686.237V38.072H685.237V39.072ZM685.237 96H684.237V97H685.237V96ZM702.517 96V97H703.517V96H702.517ZM702.517 39.072V38.072H701.517V39.072H702.517ZM729.205 39.072V40.072H730.205V39.072H729.205ZM729.205 23.192H658.549V25.192H729.205V23.192ZM657.549 24.192V39.072H659.549V24.192H657.549ZM658.549 40.072H685.237V38.072H658.549V40.072ZM684.237 39.072V96H686.237V39.072H684.237ZM685.237 97H702.517V95H685.237V97ZM703.517 96V39.072H701.517V96H703.517ZM702.517 40.072H729.205V38.072H702.517V40.072ZM730.205 39.072V24.192H728.205V39.072H730.205ZM806.142 24.192V23.192H805.532L805.253 23.7344L806.142 24.192ZM785.982 63.36L785.098 63.8279L785.994 65.5208L786.871 63.8176L785.982 63.36ZM765.246 24.192L766.13 23.7241L765.848 23.192H765.246V24.192ZM746.814 24.192V23.192H745.141L745.933 24.6655L746.814 24.192ZM772.254 71.52L771.373 71.9935L771.656 72.52H772.254V71.52ZM781.566 71.52L782.454 71.9797L783.21 70.52H781.566V71.52ZM768.894 96L768.006 95.5403L767.25 97H768.894V96ZM786.27 96V97H786.878L787.158 96.4605L786.27 96ZM823.518 24.192L824.406 24.6525L825.163 23.192H823.518V24.192ZM805.253 23.7344L785.093 62.9024L786.871 63.8176L807.031 24.6496L805.253 23.7344ZM786.866 62.8921L766.13 23.7241L764.362 24.6599L785.098 63.8279L786.866 62.8921ZM765.246 23.192H746.814V25.192H765.246V23.192ZM745.933 24.6655L771.373 71.9935L773.135 71.0465L747.695 23.7185L745.933 24.6655ZM772.254 72.52H781.566V70.52H772.254V72.52ZM780.678 71.0603L768.006 95.5403L769.782 96.4597L782.454 71.9797L780.678 71.0603ZM768.894 97H786.27V95H768.894V97ZM787.158 96.4605L824.406 24.6525L822.63 23.7315L785.382 95.5395L787.158 96.4605ZM823.518 23.192H806.142V25.192H823.518V23.192ZM846 24.192V23.192H845V24.192H846ZM846 96H845V97H846V96ZM863.28 96V97H864.28V96H863.28ZM863.28 71.808V70.808H862.28V71.808H863.28ZM863.28 57.696H862.28V58.696H863.28V57.696ZM863.28 38.496V37.496H862.28V38.496H863.28ZM878.448 23.192H846V25.192H878.448V23.192ZM845 24.192V96H847V24.192H845ZM846 97H863.28V95H846V97ZM864.28 96V71.808H862.28V96H864.28ZM863.28 72.808H878.544V70.808H863.28V72.808ZM878.544 72.808C887.258 72.808 894.776 70.9367 900.138 66.8557C905.542 62.7422 908.632 56.4776 908.632 48H906.632C906.632 55.9384 903.77 61.5778 898.926 65.2643C894.04 68.9833 887.014 70.808 878.544 70.808V72.808ZM908.632 48C908.632 39.566 905.515 33.3031 900.089 29.1798C894.705 25.0884 887.165 23.192 878.448 23.192V25.192C886.915 25.192 893.967 27.0396 898.879 30.7722C903.749 34.4729 906.632 40.114 906.632 48H908.632ZM878.448 56.696H863.28V58.696H878.448V56.696ZM864.28 57.696V38.496H862.28V57.696H864.28ZM863.28 39.496H878.256V37.496H863.28V39.496ZM878.256 39.496C881.596 39.496 884.306 40.1951 886.156 41.5673C887.96 42.9046 889.064 44.9657 889.064 48H891.064C891.064 44.4103 889.72 41.7194 887.348 39.9607C885.022 38.2369 881.829 37.496 878.256 37.496V39.496ZM889.064 48C889.064 51.096 887.974 53.2081 886.201 54.5764C884.387 55.9764 881.731 56.696 878.448 56.696V58.696C881.981 58.696 885.133 57.9276 887.423 56.1596C889.755 54.3599 891.064 51.624 891.064 48H889.064ZM991.46 96L990.545 96.4021L990.807 97H991.46V96ZM1009.8 96V97H1011.34L1010.71 95.5933L1009.8 96ZM977.828 24.192L978.742 23.7853L978.478 23.192H977.828V24.192ZM952.196 24.192V23.192H951.547L951.283 23.7853L952.196 24.192ZM920.228 96L919.315 95.5933L918.688 97H920.228V96ZM938.372 96V97H939.029L939.29 96.3969L938.372 96ZM944.516 81.792V80.792H943.859L943.598 81.3951L944.516 81.792ZM985.22 81.792L986.136 81.3899L985.873 80.792H985.22V81.792ZM964.868 33.792L965.788 33.3993L964.868 31.2453L963.949 33.3993L964.868 33.792ZM979.46 67.968V68.968H980.975L980.38 67.5753L979.46 67.968ZM950.276 67.968L949.357 67.5753L948.762 68.968H950.276V67.968ZM991.46 97H1009.8V95H991.46V97ZM1010.71 95.5933L978.742 23.7853L976.915 24.5987L1008.88 96.4067L1010.71 95.5933ZM977.828 23.192H952.196V25.192H977.828V23.192ZM951.283 23.7853L919.315 95.5933L921.142 96.4067L953.11 24.5987L951.283 23.7853ZM920.228 97H938.372V95H920.228V97ZM939.29 96.3969L945.434 82.1889L943.598 81.3951L937.454 95.6031L939.29 96.3969ZM944.516 82.792H985.22V80.792H944.516V82.792ZM984.305 82.1941L990.545 96.4021L992.376 95.5979L986.136 81.3899L984.305 82.1941ZM963.949 34.1847L978.541 68.3607L980.38 67.5753L965.788 33.3993L963.949 34.1847ZM979.46 66.968H950.276V68.968H979.46V66.968ZM951.196 68.3607L965.788 34.1847L963.949 33.3993L949.357 67.5753L951.196 68.3607Z" fill="#F4F4F4"/>
</svg>
