<svg width="1011" height="74" viewBox="0 0 1011 74" fill="none" xmlns="http://www.w3.org/2000/svg">
    <path opacity="0.2"
          d="M73.304 73L72.3884 73.4021L72.651 74H73.304V73ZM91.64 73V74H93.1798L92.5536 72.5933L91.64 73ZM59.672 1.192L60.5856 0.785292L60.3214 0.191998H59.672V1.192ZM34.04 1.192V0.191998H33.3906L33.1264 0.785292L34.04 1.192ZM2.072 73L1.15844 72.5933L0.532194 74H2.072V73ZM20.216 73V74H20.8731L21.1339 73.3969L20.216 73ZM26.36 58.792V57.792H25.7029L25.4421 58.3951L26.36 58.792ZM67.064 58.792L67.9796 58.3899L67.717 57.792H67.064V58.792ZM46.712 10.792L47.6317 10.3993L46.712 8.24534L45.7923 10.3993L46.712 10.792ZM61.304 44.968V45.968H62.8183L62.2237 44.5753L61.304 44.968ZM32.12 44.968L31.2003 44.5753L30.6057 45.968H32.12V44.968ZM73.304 74H91.64V72H73.304V74ZM92.5536 72.5933L60.5856 0.785292L58.7584 1.5987L90.7264 73.4067L92.5536 72.5933ZM59.672 0.191998H34.04V2.192H59.672V0.191998ZM33.1264 0.785292L1.15844 72.5933L2.98556 73.4067L34.9536 1.5987L33.1264 0.785292ZM2.072 74H20.216V72H2.072V74ZM21.1339 73.3969L27.2779 59.1889L25.4421 58.3951L19.2981 72.6031L21.1339 73.3969ZM26.36 59.792H67.064V57.792H26.36V59.792ZM66.1484 59.1941L72.3884 73.4021L74.2196 72.5979L67.9796 58.3899L66.1484 59.1941ZM45.7923 11.1847L60.3843 45.3607L62.2237 44.5753L47.6317 10.3993L45.7923 11.1847ZM61.304 43.968H32.12V45.968H61.304V43.968ZM33.0397 45.3607L47.6317 11.1847L45.7923 10.3993L31.2003 44.5753L33.0397 45.3607ZM113.919 1.192V0.191998H112.919V1.192H113.919ZM113.919 73H112.919V74H113.919V73ZM131.199 73V74H132.199V73H131.199ZM131.199 48.808V47.808H130.199V48.808H131.199ZM131.199 34.696H130.199V35.696H131.199V34.696ZM131.199 15.496V14.496H130.199V15.496H131.199ZM146.367 0.191998H113.919V2.192H146.367V0.191998ZM112.919 1.192V73H114.919V1.192H112.919ZM113.919 74H131.199V72H113.919V74ZM132.199 73V48.808H130.199V73H132.199ZM131.199 49.808H146.463V47.808H131.199V49.808ZM146.463 49.808C155.177 49.808 162.695 47.9367 168.056 43.8557C173.461 39.7422 176.551 33.4776 176.551 25H174.551C174.551 32.9384 171.688 38.5778 166.845 42.2643C161.959 45.9833 154.932 47.808 146.463 47.808V49.808ZM176.551 25C176.551 16.566 173.434 10.3031 168.008 6.1798C162.624 2.0884 155.084 0.191998 146.367 0.191998V2.192C154.834 2.192 161.886 4.0396 166.798 7.7722C171.668 11.4729 174.551 17.114 174.551 25H176.551ZM146.367 33.696H131.199V35.696H146.367V33.696ZM132.199 34.696V15.496H130.199V34.696H132.199ZM131.199 16.496H146.175V14.496H131.199V16.496ZM146.175 16.496C149.514 16.496 152.224 17.1951 154.075 18.5673C155.879 19.9046 156.983 21.9657 156.983 25H158.983C158.983 21.4103 157.639 18.7194 155.266 16.9607C152.941 15.2369 149.747 14.496 146.175 14.496V16.496ZM156.983 25C156.983 28.096 155.892 30.2081 154.12 31.5764C152.306 32.9764 149.65 33.696 146.367 33.696V35.696C149.9 35.696 153.051 34.9276 155.342 33.1596C157.673 31.3599 158.983 28.624 158.983 25H156.983ZM270.541 73V74H272.369L271.383 72.4608L270.541 73ZM245.773 34.312L244.937 33.764L244.582 34.3058L244.931 34.8512L245.773 34.312ZM267.469 1.192L268.306 1.73997L269.32 0.191998H267.469V1.192ZM248.749 1.192V0.191998H248.2L247.906 0.654934L248.749 1.192ZM231.085 28.936L230.244 29.4772L231.09 30.7908L231.929 29.4731L231.085 28.936ZM213.229 1.192L214.07 0.650799L213.775 0.191998H213.229V1.192ZM194.413 1.192V0.191998H192.549L193.58 1.74503L194.413 1.192ZM216.397 34.312L217.233 34.8614L217.596 34.3094L217.23 33.759L216.397 34.312ZM190.957 73L190.122 72.4506L189.103 74H190.957V73ZM209.773 73V74H210.323L210.617 73.5361L209.773 73ZM230.989 39.592L231.839 39.0646L230.999 37.7114L230.145 39.0559L230.989 39.592ZM251.725 73L250.876 73.5274L251.169 74H251.725V73ZM271.383 72.4608L246.615 33.7728L244.931 34.8512L269.699 73.5392L271.383 72.4608ZM246.61 34.86L268.306 1.73997L266.633 0.64403L244.937 33.764L246.61 34.86ZM267.469 0.191998H248.749V2.192H267.469V0.191998ZM247.906 0.654934L230.242 28.3989L231.929 29.4731L249.593 1.72906L247.906 0.654934ZM231.926 28.3948L214.07 0.650799L212.388 1.7332L230.244 29.4772L231.926 28.3948ZM213.229 0.191998H194.413V2.192H213.229V0.191998ZM193.58 1.74503L215.564 34.865L217.23 33.759L195.246 0.638969L193.58 1.74503ZM215.562 33.7626L190.122 72.4506L191.793 73.5494L217.233 34.8614L215.562 33.7626ZM190.957 74H209.773V72H190.957V74ZM210.617 73.5361L231.833 40.1281L230.145 39.0559L208.929 72.4639L210.617 73.5361ZM230.14 40.1194L250.876 73.5274L252.575 72.4726L231.839 39.0646L230.14 40.1194ZM251.725 74H270.541V72H251.725V74ZM340.777 1.192V0.191998H340.157L339.881 0.748106L340.777 1.192ZM309.961 63.4H308.961L310.857 63.8439L309.961 63.4ZM309.961 1.192H310.961V0.191998H309.961V1.192ZM292.681 1.192V0.191998H291.681V1.192H292.681ZM292.681 73H291.681V74H292.681V73ZM321.577 73V74H322.2L322.475 73.4411L321.577 73ZM352.105 10.888H353.105L351.208 10.4469L352.105 10.888ZM352.105 73H351.105V74H352.105V73ZM369.385 73V74H370.385V73H369.385ZM369.385 1.192H370.385V0.191998H369.385V1.192ZM339.881 0.748106L309.065 62.9561L310.857 63.8439L341.673 1.63589L339.881 0.748106ZM310.961 63.4V1.192H308.961V63.4H310.961ZM309.961 0.191998H292.681V2.192H309.961V0.191998ZM291.681 1.192V73H293.681V1.192H291.681ZM292.681 74H321.577V72H292.681V74ZM322.475 73.4411L353.003 11.3291L351.208 10.4469L320.68 72.5589L322.475 73.4411ZM351.105 10.888V73H353.105V10.888H351.105ZM352.105 74H369.385V72H352.105V74ZM370.385 73V1.192H368.385V73H370.385ZM369.385 0.191998H340.777V2.192H369.385V0.191998ZM462.124 1.192H463.124V0.191998H462.124V1.192ZM391.467 1.192V0.191998H390.467V1.192H391.467ZM391.467 16.072H390.467V17.072H391.467V16.072ZM418.155 16.072H419.155V15.072H418.155V16.072ZM418.155 73H417.155V74H418.155V73ZM435.435 73V74H436.435V73H435.435ZM435.435 16.072V15.072H434.435V16.072H435.435ZM462.124 16.072V17.072H463.124V16.072H462.124ZM462.124 0.191998H391.467V2.192H462.124V0.191998ZM390.467 1.192V16.072H392.467V1.192H390.467ZM391.467 17.072H418.155V15.072H391.467V17.072ZM417.155 16.072V73H419.155V16.072H417.155ZM418.155 74H435.435V72H418.155V74ZM436.435 73V16.072H434.435V73H436.435ZM435.435 17.072H462.124V15.072H435.435V17.072ZM463.124 16.072V1.192H461.124V16.072H463.124ZM501.474 58.696H500.474V59.696H501.474V58.696ZM501.474 41.992V40.992H500.474V41.992H501.474ZM539.874 41.992V42.992H540.874V41.992H539.874ZM539.874 28.168H540.874V27.168H539.874V28.168ZM501.474 28.168H500.474V29.168H501.474V28.168ZM501.474 15.496V14.496H500.474V15.496H501.474ZM541.602 15.496V16.496H542.602V15.496H541.602ZM541.602 1.192H542.602V0.191998H541.602V1.192ZM484.194 1.192V0.191998H483.194V1.192H484.194ZM484.194 73H483.194V74H484.194V73ZM542.178 73V74H543.178V73H542.178ZM542.178 58.696H543.178V57.696H542.178V58.696ZM502.474 58.696V41.992H500.474V58.696H502.474ZM501.474 42.992H539.874V40.992H501.474V42.992ZM540.874 41.992V28.168H538.874V41.992H540.874ZM539.874 27.168H501.474V29.168H539.874V27.168ZM502.474 28.168V15.496H500.474V28.168H502.474ZM501.474 16.496H541.602V14.496H501.474V16.496ZM542.602 15.496V1.192H540.602V15.496H542.602ZM541.602 0.191998H484.194V2.192H541.602V0.191998ZM483.194 1.192V73H485.194V1.192H483.194ZM484.194 74H542.178V72H484.194V74ZM543.178 73V58.696H541.178V73H543.178ZM542.178 57.696H501.474V59.696H542.178V57.696ZM607.966 26.152L607.355 25.3602L606.589 25.9517L607.155 26.737L607.966 26.152ZM640.318 1.192L640.929 1.98375L643.251 0.191998H640.318V1.192ZM616.222 1.192V0.191998H615.872L615.599 0.410164L616.222 1.192ZM585.886 25.384H584.886V27.4605L586.51 26.1658L585.886 25.384ZM585.886 1.192H586.886V0.191998H585.886V1.192ZM568.606 1.192V0.191998H567.606V1.192H568.606ZM568.606 73H567.606V74H568.606V73ZM585.886 73V74H586.886V73H585.886ZM585.886 42.952L585.268 42.1657L584.886 42.466V42.952H585.886ZM595.294 35.56L596.117 34.9922L595.513 34.1162L594.676 34.7737L595.294 35.56ZM621.118 73L620.295 73.5678L620.593 74H621.118V73ZM641.758 73V74H643.713L642.569 72.415L641.758 73ZM608.577 26.9437L640.929 1.98375L639.707 0.400248L607.355 25.3602L608.577 26.9437ZM640.318 0.191998H616.222V2.192H640.318V0.191998ZM615.599 0.410164L585.263 24.6022L586.51 26.1658L616.846 1.97383L615.599 0.410164ZM586.886 25.384V1.192H584.886V25.384H586.886ZM585.886 0.191998H568.606V2.192H585.886V0.191998ZM567.606 1.192V73H569.606V1.192H567.606ZM568.606 74H585.886V72H568.606V74ZM586.886 73V42.952H584.886V73H586.886ZM586.504 43.7383L595.912 36.3463L594.676 34.7737L585.268 42.1657L586.504 43.7383ZM594.471 36.1278L620.295 73.5678L621.941 72.4322L596.117 34.9922L594.471 36.1278ZM621.118 74H641.758V72H621.118V74ZM642.569 72.415L608.777 25.567L607.155 26.737L640.947 73.585L642.569 72.415ZM728.205 1.192H729.205V0.191998H728.205V1.192ZM657.549 1.192V0.191998H656.549V1.192H657.549ZM657.549 16.072H656.549V17.072H657.549V16.072ZM684.237 16.072H685.237V15.072H684.237V16.072ZM684.237 73H683.237V74H684.237V73ZM701.517 73V74H702.517V73H701.517ZM701.517 16.072V15.072H700.517V16.072H701.517ZM728.205 16.072V17.072H729.205V16.072H728.205ZM728.205 0.191998H657.549V2.192H728.205V0.191998ZM656.549 1.192V16.072H658.549V1.192H656.549ZM657.549 17.072H684.237V15.072H657.549V17.072ZM683.237 16.072V73H685.237V16.072H683.237ZM684.237 74H701.517V72H684.237V74ZM702.517 73V16.072H700.517V73H702.517ZM701.517 17.072H728.205V15.072H701.517V17.072ZM729.205 16.072V1.192H727.205V16.072H729.205ZM805.142 1.192V0.191998H804.532L804.253 0.734354L805.142 1.192ZM784.982 40.36L784.098 40.8279L784.995 42.5209L785.871 40.8176L784.982 40.36ZM764.246 1.192L765.13 0.72411L764.848 0.191998H764.246V1.192ZM745.814 1.192V0.191998H744.141L744.933 1.66546L745.814 1.192ZM771.254 48.52L770.373 48.9935L770.656 49.52H771.254V48.52ZM780.566 48.52L781.454 48.9797L782.21 47.52H780.566V48.52ZM767.894 73L767.006 72.5403L766.25 74H767.894V73ZM785.27 73V74H785.878L786.158 73.4605L785.27 73ZM822.518 1.192L823.406 1.65245L824.163 0.191998H822.518V1.192ZM804.253 0.734354L784.093 39.9024L785.871 40.8176L806.031 1.64964L804.253 0.734354ZM785.866 39.8921L765.13 0.72411L763.362 1.65989L784.098 40.8279L785.866 39.8921ZM764.246 0.191998H745.814V2.192H764.246V0.191998ZM744.933 1.66546L770.373 48.9935L772.135 48.0465L746.695 0.718536L744.933 1.66546ZM771.254 49.52H780.566V47.52H771.254V49.52ZM779.678 48.0603L767.006 72.5403L768.782 73.4597L781.454 48.9797L779.678 48.0603ZM767.894 74H785.27V72H767.894V74ZM786.158 73.4605L823.406 1.65245L821.63 0.731543L784.382 72.5395L786.158 73.4605ZM822.518 0.191998H805.142V2.192H822.518V0.191998ZM845 1.192V0.191998H844V1.192H845ZM845 73H844V74H845V73ZM862.28 73V74H863.28V73H862.28ZM862.28 48.808V47.808H861.28V48.808H862.28ZM862.28 34.696H861.28V35.696H862.28V34.696ZM862.28 15.496V14.496H861.28V15.496H862.28ZM877.448 0.191998H845V2.192H877.448V0.191998ZM844 1.192V73H846V1.192H844ZM845 74H862.28V72H845V74ZM863.28 73V48.808H861.28V73H863.28ZM862.28 49.808H877.544V47.808H862.28V49.808ZM877.544 49.808C886.258 49.808 893.776 47.9367 899.138 43.8557C904.542 39.7422 907.632 33.4776 907.632 25H905.632C905.632 32.9384 902.77 38.5778 897.926 42.2643C893.04 45.9833 886.014 47.808 877.544 47.808V49.808ZM907.632 25C907.632 16.566 904.515 10.3031 899.089 6.1798C893.705 2.0884 886.165 0.191998 877.448 0.191998V2.192C885.915 2.192 892.967 4.0396 897.879 7.7722C902.749 11.4729 905.632 17.114 905.632 25H907.632ZM877.448 33.696H862.28V35.696H877.448V33.696ZM863.28 34.696V15.496H861.28V34.696H863.28ZM862.28 16.496H877.256V14.496H862.28V16.496ZM877.256 16.496C880.596 16.496 883.306 17.1951 885.156 18.5673C886.96 19.9046 888.064 21.9657 888.064 25H890.064C890.064 21.4103 888.72 18.7194 886.348 16.9607C884.022 15.2369 880.829 14.496 877.256 14.496V16.496ZM888.064 25C888.064 28.096 886.974 30.2081 885.201 31.5764C883.387 32.9764 880.731 33.696 877.448 33.696V35.696C880.981 35.696 884.133 34.9276 886.423 33.1596C888.755 31.3599 890.064 28.624 890.064 25H888.064ZM990.46 73L989.545 73.4021L989.807 74H990.46V73ZM1008.8 73V74H1010.34L1009.71 72.5933L1008.8 73ZM976.828 1.192L977.742 0.785292L977.478 0.191998H976.828V1.192ZM951.196 1.192V0.191998H950.547L950.283 0.785292L951.196 1.192ZM919.228 73L918.315 72.5933L917.688 74H919.228V73ZM937.372 73V74H938.029L938.29 73.3969L937.372 73ZM943.516 58.792V57.792H942.859L942.598 58.3951L943.516 58.792ZM984.22 58.792L985.136 58.3899L984.873 57.792H984.22V58.792ZM963.868 10.792L964.788 10.3993L963.868 8.24534L962.949 10.3993L963.868 10.792ZM978.46 44.968V45.968H979.975L979.38 44.5753L978.46 44.968ZM949.276 44.968L948.357 44.5753L947.762 45.968H949.276V44.968ZM990.46 74H1008.8V72H990.46V74ZM1009.71 72.5933L977.742 0.785292L975.915 1.5987L1007.88 73.4067L1009.71 72.5933ZM976.828 0.191998H951.196V2.192H976.828V0.191998ZM950.283 0.785292L918.315 72.5933L920.142 73.4067L952.11 1.5987L950.283 0.785292ZM919.228 74H937.372V72H919.228V74ZM938.29 73.3969L944.434 59.1889L942.598 58.3951L936.454 72.6031L938.29 73.3969ZM943.516 59.792H984.22V57.792H943.516V59.792ZM983.305 59.1941L989.545 73.4021L991.376 72.5979L985.136 58.3899L983.305 59.1941ZM962.949 11.1847L977.541 45.3607L979.38 44.5753L964.788 10.3993L962.949 11.1847ZM978.46 43.968H949.276V45.968H978.46V43.968ZM950.196 45.3607L964.788 11.1847L962.949 10.3993L948.357 44.5753L950.196 45.3607Z"
          fill="#F4F4F4"/>
</svg>
