<svg width="27" height="26" viewBox="0 0 27 26" fill="none" xmlns="http://www.w3.org/2000/svg">
    <path opacity="0.2" fill-rule="evenodd" clip-rule="evenodd"
          d="M0 12.961C0 5.80152 5.85869 0 13.0906 0C20.3217 0 26.1813 5.80152 26.1813 12.961C26.1813 20.1205 20.3226 25.9221 13.0906 25.9221C5.85953 25.9221 0 20.1205 0 12.961ZM20.8358 17.0842C20.8418 17.0954 20.8463 17.1037 20.8495 17.1092C21.3852 18.0091 20.2974 18.1009 20.2419 18.1055C20.2404 18.1057 20.2397 18.1057 20.2397 18.1057L18.0238 18.1373C18.0238 18.1373 17.5478 18.2328 16.9214 17.7968C16.5938 17.5687 16.2736 17.1967 15.9684 16.8422C15.5017 16.3 15.0703 15.7989 14.7023 15.917C14.0843 16.1153 14.1041 17.4635 14.1041 17.4635C14.1041 17.4635 14.1093 17.7515 13.9683 17.9048C13.816 18.0719 13.5163 18.1054 13.5163 18.1054H12.525C12.525 18.1054 10.337 18.2387 8.40922 16.2056C6.30807 13.9874 4.45223 9.58858 4.45223 9.58858C4.45223 9.58858 4.34562 9.30095 4.46163 9.16108C4.59222 9.00446 4.94803 8.99396 4.94803 8.99396L7.31846 8.97918C7.31846 8.97918 7.54238 9.01694 7.70214 9.1358C7.83403 9.23332 7.90759 9.4162 7.90759 9.4162C7.90759 9.4162 8.29126 10.3986 8.7984 11.2864C9.7887 13.0211 10.2501 13.4003 10.5872 13.2144C11.0775 12.9432 10.9303 10.7631 10.9303 10.7631C10.9303 10.7631 10.9394 9.97077 10.6834 9.61879C10.4854 9.34561 10.1121 9.26582 9.94716 9.24382C9.81333 9.22609 10.0321 8.91187 10.3163 8.77101C10.7424 8.55989 11.4961 8.54708 12.386 8.55661C13.0798 8.56383 13.2791 8.60783 13.5506 8.67415C14.1798 8.8279 14.1602 9.32133 14.118 10.3863C14.1054 10.7041 14.0908 11.0728 14.0908 11.4985C14.0908 11.5945 14.088 11.6968 14.0852 11.8021C14.0704 12.3468 14.0535 12.971 14.4071 13.2026C14.5885 13.3215 15.0335 13.2207 16.144 11.3094C16.6709 10.4039 17.0659 9.33839 17.0659 9.33839C17.0659 9.33839 17.1518 9.14926 17.2856 9.06718C17.4233 8.98411 17.608 9.00939 17.608 9.00939L20.101 8.99461C20.101 8.99461 20.8508 8.90432 20.972 9.24678C21.0994 9.60598 20.692 10.4465 19.6726 11.8229C18.7039 13.1311 18.2333 13.611 18.2781 14.0366C18.3108 14.3463 18.6164 14.6273 19.2017 15.1779C20.4324 16.3354 20.7591 16.9418 20.8358 17.0842Z"
          fill="#F4F4F4"/>
</svg>
