<svg width="27" height="26" viewBox="0 0 27 26" fill="none" xmlns="http://www.w3.org/2000/svg">
    <path opacity="0.2"
          d="M13.1813 26C11.4209 26 9.73661 25.6572 8.12854 24.9717C6.52047 24.2861 5.13668 23.3636 3.97717 22.2041C2.81767 21.0446 1.89514 19.6608 1.20959 18.0527C0.524048 16.4447 0.181274 14.7604 0.181274 13C0.181274 11.2396 0.524048 9.55534 1.20959 7.94727C1.89514 6.33919 2.81767 4.9554 3.97717 3.7959C5.13668 2.63639 6.52047 1.71387 8.12854 1.02832C9.73661 0.342773 11.4209 0 13.1813 0C14.9417 0 16.6259 0.342773 18.234 1.02832C19.8421 1.71387 21.2259 2.63639 22.3854 3.7959C23.5449 4.9554 24.4674 6.33919 25.153 7.94727C25.8385 9.55534 26.1813 11.2396 26.1813 13C26.1813 14.7604 25.8385 16.4447 25.153 18.0527C24.4674 19.6608 23.5449 21.0446 22.3854 22.2041C21.2259 23.3636 19.8421 24.2861 18.234 24.9717C16.6259 25.6572 14.9417 26 13.1813 26ZM19.6813 8.125C19.6813 7.6849 19.5247 7.30404 19.2115 6.98242C18.8984 6.66081 18.5133 6.5 18.0563 6.5H8.30627C7.86617 6.5 7.48531 6.66081 7.1637 6.98242C6.84208 7.30404 6.68127 7.6849 6.68127 8.125V9.75H9.57581C10.5576 8.66667 11.7594 8.125 13.1813 8.125C14.6031 8.125 15.805 8.66667 16.7867 9.75H19.6813V8.125ZM9.93127 13C9.93127 13.8971 10.2487 14.6631 10.8834 15.2979C11.5182 15.9326 12.2841 16.25 13.1813 16.25C14.0784 16.25 14.8444 15.9326 15.4791 15.2979C16.1139 14.6631 16.4313 13.8971 16.4313 13C16.4313 12.1029 16.1139 11.3369 15.4791 10.7021C14.8444 10.0674 14.0784 9.75 13.1813 9.75C12.2841 9.75 11.5182 10.0674 10.8834 10.7021C10.2487 11.3369 9.93127 12.1029 9.93127 13ZM19.6813 11.375H17.7516C17.9547 11.9336 18.0563 12.4753 18.0563 13C18.0563 14.3542 17.5823 15.5052 16.6344 16.4531C15.6865 17.401 14.5354 17.875 13.1813 17.875C11.8271 17.875 10.6761 17.401 9.72815 16.4531C8.78023 15.5052 8.30627 14.3542 8.30627 13C8.30627 12.4753 8.40784 11.9336 8.61096 11.375H6.68127V17.875C6.68127 18.332 6.83785 18.7171 7.151 19.0303C7.46415 19.3434 7.84924 19.5 8.30627 19.5H18.0563C18.5133 19.5 18.8984 19.3434 19.2115 19.0303C19.5247 18.7171 19.6813 18.332 19.6813 17.875V11.375Z"
          fill="#F4F4F4"/>
</svg>
