<svg width="27" height="26" viewBox="0 0 27 26" fill="none" xmlns="http://www.w3.org/2000/svg">
    <path opacity="0.2"
          d="M13.1813 0C5.9994 0 0.181274 5.81897 0.181274 13C0.181274 20.181 6.00024 26 13.1813 26C20.3631 26 26.1813 20.181 26.1813 13C26.1813 5.81897 20.3623 0 13.1813 0ZM19.5664 8.90626L17.4327 18.9607C17.275 19.6736 16.8506 19.8464 16.2585 19.5109L13.0085 17.1155L11.441 18.6252C11.2682 18.798 11.1214 18.9448 10.7859 18.9448L11.0166 15.6369L17.0393 10.1954C17.3019 9.96471 16.9815 9.83387 16.6351 10.0645L9.19153 14.7504L5.98347 13.749C5.2865 13.5292 5.27057 13.052 6.13024 12.7165L18.6639 7.88303C19.246 7.67335 19.7542 8.02477 19.5655 8.90542L19.5664 8.90626Z"
          fill="#F4F4F4"/>
</svg>
